{
    "asset": {
        "version": "2.0",
        "generator": "THREE.GLTFExporter"
    },
    "scenes": [
        {
            "name": "Scene",
            "nodes": [
                3,
                4
            ]
        }
    ],
    "scene": 0,
    "nodes": [
        {
            "matrix": [
                18.674062728881836,
                0,
                0,
                0,
                0,
                11.61595344543457,
                0,
                0,
                0,
                0,
                1,
                0,
                0,
                3.049544095993042,
                0,
                1
            ],
            "name": "Plane",
            "extras": {
                "name": "Plane"
            },
            "mesh": 0
        },
        {
            "name": "abcgltf",
            "extras": {
                "name": "abc.gltf"
            },
            "children": [
                0
            ]
        },
        {
            "matrix": [
                -18.674062728881836,
                2.2869129674411508e-15,
                0,
                0,
                -1.4225439289368645e-15,
                -11.61595344543457,
                0,
                0,
                0,
                0,
                1,
                0,
                0,
                -8.517934799194336,
                0,
                1
            ],
            "name": "Plane001",
            "extras": {
                "name": "Plane.001"
            },
            "mesh": 0
        },
        {
            "name": "untitled.glb",
            "children": [
                1,
                2
            ]
        },
        {
            "matrix": [
                1,
                0,
                0,
                0,
                0,
                1,
                0,
                0,
                0,
                0,
                1,
                0,
                -1.71852566009537,
                1.7756071479085627,
                22.673989043417038,
                1
            ],
            "name": "SpotLight",
            "extensions": {
                "KHR_lights_punctual": {
                    "light": 0
                }
            }
        }
    ],
    "bufferViews": [
        {
            "buffer": 0,
            "byteOffset": 0,
            "byteLength": 48,
            "target": 34962,
            "byteStride": 12
        },
        {
            "buffer": 0,
            "byteOffset": 48,
            "byteLength": 32,
            "target": 34962,
            "byteStride": 8
        },
        {
            "buffer": 0,
            "byteOffset": 80,
            "byteLength": 48,
            "target": 34962,
            "byteStride": 12
        },
        {
            "buffer": 0,
            "byteOffset": 128,
            "byteLength": 24,
            "target": 34963
        }
    ],
    "buffers": [
        {
            "byteLength": 152,
            "uri": "scene2.png"
        }
    ],
    "accessors": [
        {
            "bufferView": 0,
            "componentType": 5126,
            "count": 4,
            "max": [
                0.5,
                0.5,
                0
            ],
            "min": [
                -0.5,
                -0.5,
                0
            ],
            "type": "VEC3"
        },
        {
            "bufferView": 1,
            "componentType": 5126,
            "count": 4,
            "max": [
                1,
                1
            ],
            "min": [
                0,
                0
            ],
            "type": "VEC2"
        },
        {
            "bufferView": 2,
            "componentType": 5126,
            "count": 4,
            "max": [
                0,
                0,
                1
            ],
            "min": [
                0,
                0,
                1
            ],
            "type": "VEC3"
        },
        {
            "bufferView": 3,
            "componentType": 5125,
            "count": 6,
            "max": [
                3
            ],
            "min": [
                0
            ],
            "type": "SCALAR"
        }
    ],
    "materials": [
        {
            "pbrMetallicRoughness": {
                "metallicFactor": 0.11999999731779099,
                "roughnessFactor": 0,
                "baseColorTexture": {
                    "index": 0,
                    "texCoord": 0
                }
            },
            "normalTexture": {
                "index": 1,
                "texCoord": 0,
                "scale": -0.5199999809265137
            },
            "name": "Material_0",
            "extensions": {
                "KHR_materials_clearcoat": {
                    "clearcoatFactor": 1,
                    "clearcoatRoughnessFactor": 1
                }
            }
        }
    ],
    "textures": [
        {
            "sampler": 0,
            "source": 0,
            "name": "Image_0"
        },
        {
            "sampler": 1,
            "source": 1,
            "name": "Image_1"
        }
    ],
    "samplers": [
        {
            "magFilter": 9729,
            "minFilter": 9987,
            "wrapS": 33071,
            "wrapT": 33071
        },
        {
            "magFilter": 9729,
            "minFilter": 9987,
            "wrapS": 33071,
            "wrapT": 33071
        }
    ],
    "images": [
        {
            "mimeType": "image/png",
            "uri": "scene.png"
        },
        {
            "mimeType": "image/png",
            "uri": "scene1.png"
        }
    ],
    "meshes": [
        {
            "primitives": [
                {
                    "mode": 4,
                    "attributes": {
                        "POSITION": 0,
                        "TEXCOORD_0": 1,
                        "NORMAL": 2
                    },
                    "indices": 3,
                    "material": 0
                }
            ]
        }
    ],
    "extensions": {
        "KHR_lights_punctual": {
            "lights": [
                {
                    "name": "SpotLight",
                    "color": [
                        1,
                        1,
                        1
                    ],
                    "intensity": 500.04,
                    "type": "spot",
                    "spot": {
                        "innerConeAngle": 0.06279999999999998,
                        "outerConeAngle": 0.314
                    }
                }
            ]
        }
    },
    "extensionsUsed": [
        "KHR_materials_clearcoat",
        "KHR_lights_punctual"
    ]
}