<svg id="eWCVGagDAKi1" xmlns="http://www.w3.org/2000/svg" xmlns:xlink="http://www.w3.org/1999/xlink" viewBox="0 0 300 300" shape-rendering="geometricPrecision" text-rendering="geometricPrecision"><defs><radialGradient id="eWCVGagDAKi3-fill" cx="0" cy="0" r="0.5" spreadMethod="pad" gradientUnits="objectBoundingBox" gradientTransform="translate(0.69134 0.331992)"><stop id="eWCVGagDAKi3-fill-0" offset="16%" stop-color="#41444a"/><stop id="eWCVGagDAKi3-fill-1" offset="89%" stop-color="#010101"/></radialGradient><linearGradient id="eWCVGagDAKi4-fill" x1="0" y1="0.5" x2="1" y2="0.5" spreadMethod="pad" gradientUnits="objectBoundingBox" gradientTransform="translate(0 0)"><stop id="eWCVGagDAKi4-fill-0" offset="0%" stop-color="#e1b087"/><stop id="eWCVGagDAKi4-fill-1" offset="100%" stop-color="#642e12"/></linearGradient><linearGradient id="eWCVGagDAKi5-fill" x1="0" y1="0.5" x2="1" y2="0.5" spreadMethod="pad" gradientUnits="objectBoundingBox" gradientTransform="translate(0 0)"><stop id="eWCVGagDAKi5-fill-0" offset="0%" stop-color="#e1b087"/><stop id="eWCVGagDAKi5-fill-1" offset="100%" stop-color="#642e12"/></linearGradient><linearGradient id="eWCVGagDAKi7-fill" x1="0" y1="0.5" x2="1" y2="0.5" spreadMethod="pad" gradientUnits="objectBoundingBox" gradientTransform="translate(0 0)"><stop id="eWCVGagDAKi7-fill-0" offset="0%" stop-color="#e1b087"/><stop id="eWCVGagDAKi7-fill-1" offset="100%" stop-color="#642e12"/></linearGradient><linearGradient id="eWCVGagDAKi8-fill" x1="0" y1="0.5" x2="1" y2="0.5" spreadMethod="pad" gradientUnits="objectBoundingBox" gradientTransform="translate(0 0)"><stop id="eWCVGagDAKi8-fill-0" offset="0%" stop-color="#e1b087"/><stop id="eWCVGagDAKi8-fill-1" offset="100%" stop-color="#642e12"/></linearGradient><linearGradient id="eWCVGagDAKi9-fill" x1="0" y1="0.5" x2="1" y2="0.5" spreadMethod="pad" gradientUnits="objectBoundingBox" gradientTransform="translate(0 0)"><stop id="eWCVGagDAKi9-fill-0" offset="0%" stop-color="#e1b087"/><stop id="eWCVGagDAKi9-fill-1" offset="100%" stop-color="#642e12"/></linearGradient><linearGradient id="eWCVGagDAKi10-fill" x1="0" y1="0.5" x2="1" y2="0.5" spreadMethod="pad" gradientUnits="objectBoundingBox" gradientTransform="translate(0 0)"><stop id="eWCVGagDAKi10-fill-0" offset="0%" stop-color="#324c13"/><stop id="eWCVGagDAKi10-fill-1" offset="100%" stop-color="#642e12"/></linearGradient><linearGradient id="eWCVGagDAKi11-fill" x1="0" y1="0.5" x2="1" y2="0.5" spreadMethod="pad" gradientUnits="objectBoundingBox" gradientTransform="translate(0 0)"><stop id="eWCVGagDAKi11-fill-0" offset="0%" stop-color="#f14d34"/><stop id="eWCVGagDAKi11-fill-1" offset="100%" stop-color="#642e12"/></linearGradient><linearGradient id="eWCVGagDAKi12-fill" x1="0" y1="0.5" x2="1" y2="0.5" spreadMethod="pad" gradientUnits="objectBoundingBox" gradientTransform="translate(0 0)"><stop id="eWCVGagDAKi12-fill-0" offset="0%" stop-color="#e1b087"/><stop id="eWCVGagDAKi12-fill-1" offset="100%" stop-color="#642e12"/></linearGradient><linearGradient id="eWCVGagDAKi13-fill" x1="0" y1="0.5" x2="1" y2="0.5" spreadMethod="pad" gradientUnits="objectBoundingBox" gradientTransform="translate(0 0)"><stop id="eWCVGagDAKi13-fill-0" offset="0%" stop-color="#e1b087"/><stop id="eWCVGagDAKi13-fill-1" offset="100%" stop-color="#642e12"/></linearGradient><radialGradient id="eWCVGagDAKi22-fill" cx="0" cy="0" r="0.5" spreadMethod="pad" gradientUnits="objectBoundingBox" gradientTransform="translate(0.69134 0.331992)"><stop id="eWCVGagDAKi22-fill-0" offset="16%" stop-color="#41444a"/><stop id="eWCVGagDAKi22-fill-1" offset="89%" stop-color="#010101"/></radialGradient><filter id="eWCVGagDAKi23-filter" x="-150%" width="400%" y="-150%" height="400%"><feGaussianBlur id="eWCVGagDAKi23-filter-blur-0" stdDeviation="10,10" result="result"/></filter><filter id="eWCVGagDAKi24-filter" x="-150%" width="400%" y="-150%" height="400%"><feGaussianBlur id="eWCVGagDAKi24-filter-blur-0" stdDeviation="10,10" result="result"/></filter><filter id="eWCVGagDAKi25-filter" x="-150%" width="400%" y="-150%" height="400%"><feGaussianBlur id="eWCVGagDAKi25-filter-blur-0" stdDeviation="10,10" result="result"/></filter></defs><g><path d="M-302.316528,-0.208296L420.268305,-58.31907L593.822347,190.388632l-732.249446,57.042627L-302.316528,-0.208296Z" transform="matrix(.090365-.39371 1.160004 0.266246 26.707958 181.28239)" fill="url(#eWCVGagDAKi3-fill)" stroke-width="0"/><path d="M219.259335,143.864052l-3.943141,59.886473l7.689127.640761l6.604762-60.034341-10.350748-.492893Z" transform="matrix(1 0 0 0.598329-146.999999 51.51618)" fill="url(#eWCVGagDAKi4-fill)" stroke-width="0.6"/><path d="M219.259335,143.864052l-3.943141,59.886473l7.689127.640761l6.604762-60.034341-10.350748-.492893Z" transform="matrix(1 0 0 0.508786-163.999999 65.236086)" fill="url(#eWCVGagDAKi5-fill)" stroke-width="0.6"/><path d="M-0.669556,31.44264l35.002088-1.949645l5.569719,255.523086h-39.902251L-0.669556,31.44264Z" transform="matrix(.415315 0.045314-.128168 1.17469 186.529987-36.613565)" fill="#010101" stroke-width="0"/><path d="M219.505782,145.737045l-5.42182,54.711098l8.921359,3.943143l5.766845-57.668456-9.266384-.985785Z" transform="matrix(1 0 0 1.121034-22.426621-25.092936)" fill="url(#eWCVGagDAKi7-fill)" stroke-width="0.6"/><path d="M217.5835,144.406234l-3.943142,58.161347l11.336534,2.957357l3.795274-58.802108-11.188666-2.316596Z" transform="matrix(1 0 0 1.11841 43.571722-12.457822)" fill="url(#eWCVGagDAKi8-fill)" stroke-width="0.6"/><path d="M218.9636,145.244152l-3.647406,58.506373l7.689127.640761l5.766845-57.668456-9.808566-1.478678Z" transform="matrix(1 0 0 1.089256 14.096734-13.106478)" fill="url(#eWCVGagDAKi9-fill)" stroke-width="0.6"/><path d="M218.9636,145.244152l-3.647406,58.506373l7.689127.640761l5.766845-57.668456-9.808566-1.478678Z" transform="matrix(1.558359-.092534 0.078257 1.317918-70.622229-24.702943)" fill="url(#eWCVGagDAKi10-fill)" stroke-width="0.6"/><path d="M218.9636,145.244152l-3.647406,58.506373l7.689127.640761l5.766845-57.668456-9.808566-1.478678Z" transform="matrix(1.558359-.092534 0.078257 1.317918-70.622229-123.702943)" fill="url(#eWCVGagDAKi11-fill)" stroke-width="0.6"/><path d="M219.259335,143.864052l-3.943141,59.886473l7.689127.640761l6.604762-60.034341-10.350748-.492893Z" transform="matrix(1 0 0 1.095147 0.000001-16.703726)" fill="url(#eWCVGagDAKi12-fill)" stroke-width="0.6"/><path d="M219.160758,148.004353l-3.844564,55.746172l7.689127.640761l5.766845-57.668456-9.611408,1.281523Z" transform="matrix(1 0 0 1.172134-4.485324-106.46985)" fill="url(#eWCVGagDAKi13-fill)" stroke-width="0.6"/><path d="M-4.651822,-26.704221l41.771581-1.418543L39.12063,226.891418l-61.059012-.839721l17.28656-252.755918Z" transform="matrix(.006698-.403891 1.190003 0.019736 30.956778 138.357873)" fill="#010101" stroke-width="0"/><path d="M25.455912,-33.954964l25.389021,2.202204L57.296614,228.6068l-61.37928-4.470944l29.538578-258.09082Z" transform="matrix(-.073764-.397155 1.170155-.217333 36.533022 111.458236)" fill="#010101" stroke-width="0"/><path d="M1.573905,26.549952l34.884319.785145l3.444027,257.680984h-39.902251L1.573905,26.549952Z" transform="matrix(.297231 0.03243-.128168 1.17469 113.042844-34.757063)" fill="#010101" stroke-width="0"/><path d="M7.917038,30.8524l25.497685.21525l6.487528,253.948431h-39.902251L7.917038,30.8524Z" transform="matrix(.415315 0.045314-.128168 1.17469 176.551-38.421706)" fill="#5e2908" stroke-width="0"/><path d="M-1.540818,50.559568l29.155747-.771188L39.902251,285.016081h-39.902251L-1.540818,50.559568Z" transform="matrix(.313233 0.034176-.140976 1.292077 108.476859-63.658231)" fill="#5e2908" stroke-width="0"/><rect width="39.902251" height="285.016081" rx="0" ry="0" transform="matrix(.001199-.273476 1.122979 0.004925-2.308403 132.31444)" fill="#5e2908" stroke-width="0"/><rect width="39.902251" height="285.016081" rx="0" ry="0" transform="matrix(.024305-.104226 1.265783 0.295178-15.694204 156.120891)" fill="#5e2908" stroke-width="0"/><path d="M0,0h39.902251L35.832003,217.203145L-8.02875,204.87349L0,0Z" transform="matrix(.085775-.185473 1.179698 0.545573 1.073048 187.693502)" fill="#5e2908" stroke-width="0"/><path d="M-302.316528,-0.208296L420.268305,-58.31907L593.822347,190.388632l-732.249446,57.042627L-302.316528,-0.208296Z" transform="matrix(.090365-.39371 1.160004 0.266246 26.707958 181.28239)" opacity="0.71" fill="url(#eWCVGagDAKi22-fill)" stroke-width="0"/></g><ellipse rx="48.233079" ry="47.881013" transform="matrix(1.423366 0 0 1.485298 100.894658 91.82866)" filter="url(#eWCVGagDAKi23-filter)" fill="#d2dbed" stroke-width="0"/><ellipse rx="48.233079" ry="47.881013" transform="matrix(.67883 0 0 0.661764 217.076525 234.063432)" opacity="0.33" filter="url(#eWCVGagDAKi24-filter)" fill="#d2dbed" stroke-width="0"/><ellipse rx="48.233079" ry="47.881013" transform="matrix(1.394171 0 0 1.55883 39.635126 302.364287)" opacity="0.33" filter="url(#eWCVGagDAKi25-filter)" fill="#d2dbed" stroke-width="0"/></svg>
